<svg xmlns="http://www.w3.org/2000/svg" viewBox="0 0 160 120" role="img" aria-label="RL Viagens e Turismo"><defs><clipPath id="c"><circle cx="72" cy="60" r="48"/></clipPath></defs><rect width="160" height="120" fill="none"/><circle cx="72" cy="60" r="50" fill="#fff"/><g clip-path="url(#c)"><rect x="15" y="10" width="115" height="100" fill="#f7f7f7"/><path d="M18 95L116 22" stroke="#3b3b3b" stroke-width="16" stroke-linecap="round"/><path d="M7 76L92 13" stroke="#3b3b3b" stroke-width="16" stroke-linecap="round"/><path d="M33 111L137 34" stroke="#3b3b3b" stroke-width="16" stroke-linecap="round"/><path d="M58 115L148 48" stroke="#e11c24" stroke-width="16" stroke-linecap="round"/><path d="M42 98L142 25" stroke="#fff" stroke-width="12" stroke-linecap="round"/><path d="M19 72L111 5" stroke="#fff" stroke-width="12" stroke-linecap="round"/><path d="M66 116L158 48" stroke="#fff" stroke-width="11" stroke-linecap="round"/></g><path d="M25 80c10 20 31 31 55 29 24-2 42-17 49-39" fill="none" stroke="#e11c24" stroke-width="5" stroke-linecap="round"/><path d="M111 82l35 13-15-28" fill="#e11c24"/><path d="M104 85c17-10 31-17 48-25" stroke="#fff" stroke-width="6" stroke-linecap="round"/><circle cx="72" cy="60" r="50" fill="none" stroke="#e11c24" stroke-width="2" opacity=".85"/></svg>