<svg xmlns="http://www.w3.org/2000/svg" viewBox="0 0 1200 630" role="img" aria-label="RL Viagens e Turismo"><rect width="1200" height="630" fill="#E11C24"/><rect x="40" y="42" width="1120" height="546" rx="24" fill="none" stroke="#fff" stroke-width="3" opacity=".9"/><g transform="translate(150 190) scale(2.1)"><rect width="120" height="120" rx="28" fill="#E11C24"/><circle cx="58" cy="58" r="41" fill="#fff" opacity=".96"/><path d="M27 72c23-16 42-28 67-43" stroke="#E11C24" stroke-width="10" stroke-linecap="round"/><path d="M25 57c17-11 37-22 58-33" stroke="#333" stroke-width="10" stroke-linecap="round"/><path d="M39 88c18-12 39-25 63-39" stroke="#333" stroke-width="10" stroke-linecap="round"/><path d="M78 82l22 9-9-20" fill="#E11C24"/><path d="M76 84c12-10 23-17 36-23" stroke="#fff" stroke-width="5" stroke-linecap="round"/></g><text x="505" y="230" font-family="Arial, Helvetica, sans-serif" font-size="86" font-weight="800" fill="#fff">RL Viagens</text><text x="505" y="325" font-family="Arial, Helvetica, sans-serif" font-size="86" font-weight="800" fill="#fff">e Turismo</text><text x="505" y="405" font-family="Arial, Helvetica, sans-serif" font-size="36" fill="#fff">Passagens • Pacotes • Cruzeiros</text><text x="505" y="482" font-family="Arial, Helvetica, sans-serif" font-size="34" font-weight="700" fill="#fff">WhatsApp (13) 98227-1412</text></svg>